<svg width="1803" height="1786" xmlns="http://www.w3.org/2000/svg" xmlns:xlink="http://www.w3.org/1999/xlink" xml:space="preserve" overflow="hidden"><g transform="translate(-1296 -267)"><path d="M2758.5 1156.5C2758.5 1065.37 2832.37 991.5 2923.5 991.5 3014.63 991.5 3088.5 1065.37 3088.5 1156.5 3088.5 1247.63 3014.63 1321.5 2923.5 1321.5 2832.37 1321.5 2758.5 1247.63 2758.5 1156.5Z" stroke="#7C7C7C" stroke-width="20.625" stroke-miterlimit="8" fill="#C9C9C9" fill-rule="evenodd"/><rect x="1496.5" y="992.5" width="1408" height="330" stroke="#7C7C7C" stroke-width="20.625" stroke-miterlimit="8" fill="#C9C9C9"/><path d="M1371.5 664.5C1371.5 446.348 1742.66 269.5 2200.5 269.5 2658.34 269.5 3029.5 446.348 3029.5 664.5 3029.5 882.652 2658.34 1059.5 2200.5 1059.5 1742.66 1059.5 1371.5 882.652 1371.5 664.5Z" stroke="#172C51" stroke-width="4.58333" stroke-miterlimit="8" fill="none" fill-rule="evenodd"/><path d="M1496.5 701C1496.5 530.068 1811.69 391.5 2200.5 391.5 2589.31 391.5 2904.5 530.068 2904.5 701 2904.5 871.932 2589.31 1010.5 2200.5 1010.5 1811.69 1010.5 1496.5 871.932 1496.5 701Z" stroke="#172C51" stroke-width="4.58333" stroke-miterlimit="8" fill="none" fill-rule="evenodd"/><path d="M1636.5 764C1636.5 653.819 1889.01 564.5 2200.5 564.5 2511.99 564.5 2764.5 653.819 2764.5 764 2764.5 874.181 2511.99 963.5 2200.5 963.5 1889.01 963.5 1636.5 874.181 1636.5 764Z" stroke="#172C51" stroke-width="4.58333" stroke-miterlimit="8" fill="none" fill-rule="evenodd"/><path d="M2113.5 842C2113.5 799.198 2152.45 764.5 2200.5 764.5 2248.55 764.5 2287.5 799.198 2287.5 842 2287.5 884.802 2248.55 919.5 2200.5 919.5 2152.45 919.5 2113.5 884.802 2113.5 842Z" stroke="#172C51" stroke-width="4.58333" stroke-miterlimit="8" fill="none" fill-rule="evenodd"/><path d="M2158.5 842C2158.5 820.185 2177.3 802.5 2200.5 802.5 2223.7 802.5 2242.5 820.185 2242.5 842 2242.5 863.815 2223.7 881.5 2200.5 881.5 2177.3 881.5 2158.5 863.815 2158.5 842Z" stroke="#172C51" stroke-width="4.58333" stroke-miterlimit="8" fill="#002060" fill-rule="evenodd"/><path d="M1371.5 1655C1371.5 1436.57 1742.66 1259.5 2200.5 1259.5 2658.34 1259.5 3029.5 1436.57 3029.5 1655 3029.5 1873.43 2658.34 2050.5 2200.5 2050.5 1742.66 2050.5 1371.5 1873.43 1371.5 1655Z" stroke="#172C51" stroke-width="4.58333" stroke-miterlimit="8" fill="none" fill-rule="evenodd"/><path d="M1496.5 1618.5C1496.5 1447.29 1811.69 1308.5 2200.5 1308.5 2589.31 1308.5 2904.5 1447.29 2904.5 1618.5 2904.5 1789.71 2589.31 1928.5 2200.5 1928.5 1811.69 1928.5 1496.5 1789.71 1496.5 1618.5Z" stroke="#172C51" stroke-width="4.58333" stroke-miterlimit="8" fill="none" fill-rule="evenodd"/><path d="M1636.5 1555.5C1636.5 1445.04 1889.01 1355.5 2200.5 1355.5 2511.99 1355.5 2764.5 1445.04 2764.5 1555.5 2764.5 1665.96 2511.99 1755.5 2200.5 1755.5 1889.01 1755.5 1636.5 1665.96 1636.5 1555.5Z" stroke="#172C51" stroke-width="4.58333" stroke-miterlimit="8" fill="none" fill-rule="evenodd"/><path d="M2113.5 1477.5C2113.5 1434.42 2152.45 1399.5 2200.5 1399.5 2248.55 1399.5 2287.5 1434.42 2287.5 1477.5 2287.5 1520.58 2248.55 1555.5 2200.5 1555.5 2152.45 1555.5 2113.5 1520.58 2113.5 1477.5Z" stroke="#172C51" stroke-width="4.58333" stroke-miterlimit="8" fill="none" fill-rule="evenodd"/><path d="M2158.5 1477.5C2158.5 1455.96 2177.3 1438.5 2200.5 1438.5 2223.7 1438.5 2242.5 1455.96 2242.5 1477.5 2242.5 1499.04 2223.7 1516.5 2200.5 1516.5 2177.3 1516.5 2158.5 1499.04 2158.5 1477.5Z" stroke="#172C51" stroke-width="4.58333" stroke-miterlimit="8" fill="#002060" fill-rule="evenodd"/><path d="M1306.5 1156.5C1306.5 1065.37 1380.37 991.5 1471.5 991.5 1562.63 991.5 1636.5 1065.37 1636.5 1156.5 1636.5 1247.63 1562.63 1321.5 1471.5 1321.5 1380.37 1321.5 1306.5 1247.63 1306.5 1156.5Z" stroke="#7C7C7C" stroke-width="20.625" stroke-miterlimit="8" fill="#C9C9C9" fill-rule="evenodd"/><rect x="2831" y="1000" width="82.9998" height="309" fill="#C9C9C9"/></g></svg>